<svg width="32" height="32" viewBox="0 0 32 32" fill="none" xmlns="http://www.w3.org/2000/svg">
  <defs>
    <linearGradient id="fg" x1="0" y1="0" x2="32" y2="32" gradientUnits="userSpaceOnUse">
      <stop stop-color="#2dd4bf"/>
      <stop offset="1" stop-color="#0891b2"/>
    </linearGradient>
  </defs>
  <rect width="32" height="32" rx="8" fill="url(#fg)"/>
  <path d="M16.4 4.2c-.5 3.1-2.2 4.6-4 6.2-1.9 1.7-4.4 3.9-4.4 8 0 4.5 3.6 7.9 8 7.9s8-3.4 8-7.9c0-2.6-1.2-4.4-2.4-6-.3 1.7-1.3 2.6-2.6 2.6 1.2-3.6-.2-8-2.6-10.8Z" fill="#ffffff"/>
  <path d="M16 15.2c-.3 1.7-1.2 2.5-2.1 3.4-1 .9-2 2-2 3.7 0 2.2 1.9 3.7 4.1 3.7s4.1-1.5 4.1-3.7c0-1.7-1-2.8-2-3.7-.9-.9-1.8-1.7-2.1-3.4Z" fill="#0e7490"/>
</svg>
